<?xml version="1.0" encoding="iso-8859-1"?>
<!-- Generator: Adobe Illustrator 19.0.0, SVG Export Plug-In . SVG Version: 6.00 Build 0)  -->
<svg version="1.1" id="Layer_1" xmlns="http://www.w3.org/2000/svg" xmlns:xlink="http://www.w3.org/1999/xlink" x="0px" y="0px"
	 viewBox="0 0 512 512" style="enable-background:new 0 0 512 512;" xml:space="preserve">
<path style="fill:#FC8059;" d="M229.875,416.491l-9.238,9.238l0.341,0.341l-75.654,75.654c-5.428,5.428-12.791,8.478-20.468,8.478
	l0,0c-7.677,0-15.039-3.05-20.468-8.478L28.735,426.07l0.341-0.341l-9.238-9.238c-26.449-26.449-26.449-69.331,0-95.781l0,0
	c26.449-26.449,69.331-26.449,95.781,0l9.238,9.238l9.238-9.238c26.449-26.449,69.331-26.449,95.781,0l0,0
	C256.324,347.158,256.324,390.042,229.875,416.491z"/>
<path style="fill:#FFFFFF;" d="M97.392,367.304c0,4.61-3.738,8.348-8.348,8.348H75.131v13.913c0,4.61-3.738,8.348-8.348,8.348
	s-8.348-3.738-8.348-8.348v-13.913H44.522c-4.61,0-8.348-3.738-8.348-8.348s3.738-8.348,8.348-8.348h13.913v-13.913
	c0-4.61,3.738-8.348,8.348-8.348s8.348,3.738,8.348,8.348v13.913h13.913C93.654,358.957,97.392,362.694,97.392,367.304z"/>
<path style="fill:#FED766;" d="M50.882,0h254.409c28.102,0,50.883,22.781,50.883,50.882v165.366
	c0,28.102-22.781,50.883-50.882,50.883h-89.043h-4.771v66.783l0,0c-36.883,0-66.783-29.9-66.783-66.783l0,0h-4.771H50.882
	C22.781,267.131,0,244.35,0,216.249V50.882C0,22.781,22.781,0,50.882,0z"/>
<g>
	<path style="fill:#AD8653;" d="M219.826,177.531v1.113c0,4.61-3.738,8.348-8.348,8.348c-4.61,0-8.348-3.738-8.348-8.348v-1.113
		c0-4.61,3.738-8.348,8.348-8.348C216.089,169.183,219.826,172.92,219.826,177.531z M178.087,169.183
		c-4.61,0-8.348,3.738-8.348,8.348v1.113c0,4.61,3.738,8.348,8.348,8.348s8.348-3.738,8.348-8.348v-1.113
		C186.435,172.92,182.697,169.183,178.087,169.183z M144.696,169.183c-4.61,0-8.348,3.738-8.348,8.348v1.113
		c0,4.61,3.738,8.348,8.348,8.348c4.61,0,8.348-3.738,8.348-8.348v-1.113C153.044,172.92,149.306,169.183,144.696,169.183z
		 M111.305,97.391H244.87c4.61,0,8.348-3.738,8.348-8.348s-3.738-8.348-8.348-8.348H111.305c-4.61,0-8.348,3.738-8.348,8.348
		S106.694,97.391,111.305,97.391z M244.87,125.218H111.305c-4.61,0-8.348,3.738-8.348,8.348s3.738,8.348,8.348,8.348H244.87
		c4.61,0,8.348-3.738,8.348-8.348S249.48,125.218,244.87,125.218z"/>
	<path style="fill:#AD8653;" d="M222.609,248.295h267.13c12.295,0,22.261,9.966,22.261,22.261v219.184
		c0,12.295-9.966,22.261-22.261,22.261h-267.13c-12.295,0-22.261-9.966-22.261-22.261V270.555
		C200.348,258.261,210.314,248.295,222.609,248.295z"/>
</g>
<path style="fill:#7F5233;" d="M320.214,308.227c0,13.24-10.733,23.973-23.974,23.973c-13.24,0-23.973-10.733-23.973-23.973
	c0-13.24,10.733-23.974,23.973-23.974C309.481,284.255,320.214,294.988,320.214,308.227z M416.107,284.255
	c-13.24,0-23.973,10.733-23.973,23.974c0,13.241,10.733,23.973,23.973,23.973c13.24,0,23.973-10.733,23.973-23.973
	C440.08,294.989,429.348,284.255,416.107,284.255z"/>
<path style="fill:#E2DCBC;" d="M424.455,236.308v71.919c0,4.61-3.738,8.348-8.348,8.348c-4.61,0-8.348-3.738-8.348-8.348v-71.919
	c0-28.444-23.141-51.585-51.585-51.585s-51.585,23.141-51.585,51.585v71.919c0,4.61-3.738,8.348-8.348,8.348
	s-8.348-3.738-8.348-8.348v-71.919c0-37.65,30.631-68.281,68.281-68.281S424.455,198.657,424.455,236.308z"/>
<g>
</g>
<g>
</g>
<g>
</g>
<g>
</g>
<g>
</g>
<g>
</g>
<g>
</g>
<g>
</g>
<g>
</g>
<g>
</g>
<g>
</g>
<g>
</g>
<g>
</g>
<g>
</g>
<g>
</g>
</svg>
