<?xml version="1.0" encoding="iso-8859-1"?>
<!-- Generator: Adobe Illustrator 19.0.0, SVG Export Plug-In . SVG Version: 6.00 Build 0)  -->
<svg version="1.1" id="Layer_1" xmlns="http://www.w3.org/2000/svg" xmlns:xlink="http://www.w3.org/1999/xlink" x="0px" y="0px"
	 viewBox="0 0 512 512" style="enable-background:new 0 0 512 512;" xml:space="preserve">
<rect x="433.006" y="27.794" style="fill:#E7ECED;" width="40.96" height="52.663"/>
<polygon style="fill:#546A79;" points="503.223,80.457 503.223,127.269 433.006,127.269 433.006,80.457 473.966,80.457 "/>
<rect x="433.006" y="127.269" style="fill:#AFB6BB;" width="70.217" height="70.217"/>
<path style="fill:#15E3A6;" d="M216.503,419.84c-70.217,0-46.811-57.227-23.406-95.378c11.703-19.076,23.406-33.353,23.406-33.353
	s9.011,11.001,19.076,26.448C260.037,355.24,291.167,419.84,216.503,419.84z"/>
<rect x="87.771" y="57.051" style="fill:#00B4D7;" width="257.463" height="169.691"/>
<path style="fill:#546A79;" d="M345.234,226.743H87.771h-40.96v269.166h339.383V226.743H345.234z M216.503,419.84
	c-70.217,0-46.811-57.227-23.406-95.378c11.703-19.076,23.406-33.353,23.406-33.353s9.011,11.001,19.076,26.448
	C260.037,355.24,291.167,419.84,216.503,419.84z"/>
<polygon style="fill:#AFB6BB;" points="386.194,16.091 386.194,226.743 345.234,226.743 345.234,57.051 87.771,57.051 
	87.771,226.743 46.811,226.743 46.811,16.091 "/>
<path style="fill:#00A9D5;" d="M187.276,57.051H87.771v169.691h257.463v-22.192C274.568,179.007,217.465,125.343,187.276,57.051z"/>
<path style="fill:#495D6B;" d="M262.602,378.456c3.344,22.911-6.222,41.384-46.099,41.384c-70.217,0-46.811-57.227-23.406-95.378
	c3.029-4.937,6.047-9.53,8.873-13.66c-19.179-26.079-35.654-54.244-49.159-84.059h-65.04h-40.96v269.166h339.383v-35.783
	C340.636,439.489,298.952,411.854,262.602,378.456z"/>
<polygon points="119.954,156.526 137.509,156.526 137.509,106.789 175.543,106.789 175.543,89.234 119.954,89.234 "/>
<rect x="119.954" y="168.229" width="17.554" height="23.406"/>
<rect x="239.909" y="159.451" width="23.406" height="17.554"/>
<rect x="263.314" y="136.046" width="23.406" height="17.554"/>
<g>
	<rect x="70.217" y="258.926" style="fill:#FFFFFF;" width="23.406" height="17.554"/>
	<rect x="70.217" y="334.994" style="fill:#FFFFFF;" width="23.406" height="17.554"/>
	<rect x="70.217" y="452.023" style="fill:#FFFFFF;" width="23.406" height="17.554"/>
	<rect x="339.383" y="452.023" style="fill:#FFFFFF;" width="23.406" height="17.554"/>
	<rect x="339.383" y="334.994" style="fill:#FFFFFF;" width="23.406" height="17.554"/>
</g>
<rect x="105.326" y="258.926" width="23.406" height="17.554"/>
<rect x="310.126" y="258.926" style="fill:#FFFFFF;" width="52.663" height="17.554"/>
<path d="M225.28,466.651v-38.353c20.972-1.541,35.133-8.823,42.137-21.721c11.005-20.263,2.77-51.823-24.485-93.812
	c-8.294-12.729-15.825-22.436-18.561-25.877c-0.632-0.795-1.008-1.255-1.079-1.342l-6.788-8.286l-6.791,8.283
	c-0.2,0.245-2.247,2.751-5.401,6.935c-4.626,6.136-11.635,15.88-18.698,27.393c-23.779,38.759-30.434,68.065-19.778,87.102
	c7.079,12.648,21.155,19.799,41.888,21.326v38.351L225.28,466.651L225.28,466.651z M181.156,398.4
	c-7.113-12.709-0.216-37.338,19.423-69.349c5.792-9.44,11.626-17.724,15.929-23.548c3.258,4.401,7.388,10.204,11.709,16.833
	c22.482,34.638,31.147,62.29,23.774,75.864c-3.87,7.126-12.851,11.307-26.711,12.497v-66.926h-17.554v66.926
	C194.008,409.518,185.075,405.403,181.156,398.4z"/>
<path d="M512,206.263V71.68h-29.257V19.017h-58.514v187.246h35.109v40.96h-64.366V7.314H146.287v17.554h231.13v193.097h-23.406
	V48.274H78.994v169.691H55.589V24.869h67.295V7.314H38.034v359.864h17.554V317.44H163.84v-17.554H55.589V235.52h321.829v64.366
	H269.166v17.554h108.251v169.691H55.589v-96.547H38.034v96.547H0v17.554h433.006v-17.554h-38.034V264.777h64.366v96.444
	c-0.103,4.052-1.71,8.881-8.778,8.881h-40.96v17.554h40.96c19.319,0,26.331-15.747,26.331-26.331v-96.549h32.184v-17.554h-32.183
	v-40.96H512z M96.549,65.829h239.909v152.137H96.549V65.829z M441.783,36.571h23.406V71.68h-23.406V36.571z M494.446,89.234v29.257
	h-52.663V89.234H494.446z M441.783,136.046h52.663v52.663h-52.663V136.046z"/>
<g>
</g>
<g>
</g>
<g>
</g>
<g>
</g>
<g>
</g>
<g>
</g>
<g>
</g>
<g>
</g>
<g>
</g>
<g>
</g>
<g>
</g>
<g>
</g>
<g>
</g>
<g>
</g>
<g>
</g>
</svg>
