<?xml version="1.0" encoding="iso-8859-1"?>
<!-- Generator: Adobe Illustrator 19.0.0, SVG Export Plug-In . SVG Version: 6.00 Build 0)  -->
<svg version="1.1" id="Capa_1" xmlns="http://www.w3.org/2000/svg" xmlns:xlink="http://www.w3.org/1999/xlink" x="0px" y="0px"
	 viewBox="0 0 370 370" style="enable-background:new 0 0 370 370;" xml:space="preserve">
<g id="XMLID_2206_">
	<polygon id="XMLID_2207_" style="fill:#78B9EB;" points="165.531,150 185,150 194.377,150 179.954,135.577 	"/>
	<polygon id="XMLID_2208_" style="fill:#78B9EB;" points="156.375,111.999 138.689,94.313 83.004,150 118.374,150 	"/>
	<path id="XMLID_2209_" style="fill:#5A8BB0;" d="M194.377,150h41.858c-5.35-8.09-4.462-19.089,2.663-26.214
		c4.828-4.829,11.434-6.77,17.709-5.868c-0.9-6.276,1.04-12.882,5.869-17.711c8.139-8.138,21.334-8.138,29.473,0
		c8.139,8.139,8.141,21.335,0,29.474c-4.828,4.828-11.434,6.769-17.711,5.868c0.712,4.958-0.341,10.12-3.204,14.451h35.964
		L345,111.997l-70.732-70.733l-94.314,94.313L194.377,150z"/>
	
		<rect id="XMLID_2210_" x="182.184" y="-10.691" transform="matrix(0.7071 0.7071 -0.7071 0.7071 96.6202 -121.2638)" style="fill:#5A8BB0;" width="25.01" height="133.379"/>
	<polygon id="XMLID_2211_" style="fill:#3C5D76;" points="118.374,150 165.531,150 179.954,135.577 274.268,41.264 274.268,41.264 
		250.688,17.685 156.375,111.999 	"/>
	<path id="XMLID_2212_" style="fill:#FFDA44;" d="M274.238,135.549c-4.303-0.618-8.451-2.558-11.762-5.868
		c-3.311-3.311-5.251-7.46-5.869-11.763c-6.275-0.901-12.881,1.039-17.709,5.868c-7.125,7.125-8.013,18.124-2.663,26.214h34.799
		C273.897,145.669,274.95,140.507,274.238,135.549z"/>
	<path id="XMLID_2213_" style="fill:#FF5023;" d="M274.238,135.549c6.277,0.9,12.883-1.04,17.711-5.868
		c8.141-8.139,8.139-21.335,0-29.474c-8.139-8.138-21.334-8.138-29.473,0c-4.829,4.829-6.77,11.435-5.869,17.711
		c0.618,4.303,2.559,8.452,5.869,11.763C265.787,132.991,269.935,134.931,274.238,135.549z"/>
	<polygon id="XMLID_2214_" style="fill:#A0815C;" points="185,150 165.531,150 118.374,150 83.004,150 25,150 25,370 185,370 	"/>
	<polygon id="XMLID_2215_" style="fill:#786145;" points="271.034,150 236.235,150 194.377,150 185,150 185,370 345,370 
		345,289.999 235,289.999 225,260 225,259.999 235,230 345,230 345,150 306.998,150 	"/>
	<path id="XMLID_2216_" style="fill:#50412E;" d="M225,259.999V260l10,29.999h110V260v-0.001V230H235L225,259.999z M260,245
		c8.284,0,15,6.715,15,15c0,8.285-6.716,15-15,15c-8.284,0-15-6.715-15-15C245,251.715,251.716,245,260,245z"/>
	<circle id="XMLID_2219_" style="fill:#CDCDD0;" cx="260" cy="260" r="15"/>
</g>
<g>
</g>
<g>
</g>
<g>
</g>
<g>
</g>
<g>
</g>
<g>
</g>
<g>
</g>
<g>
</g>
<g>
</g>
<g>
</g>
<g>
</g>
<g>
</g>
<g>
</g>
<g>
</g>
<g>
</g>
</svg>
